   <svg
                      xmlns="http://www.w3.org/2000/svg"
                      className="{% if request.resolver_match.url_name == 'especialidad' %}text-gray-300 mr-3 {% else %} text-gray-400 group-hover:text-gray-300 {% endif %}  mr-3 flex-shrink-0 h-6 w-6"
                      width="24"
                      height="24"
                      viewBox="0 0 24 24"
                      stroke="#CBD5E1"
                      fill="none"
                    >
                      <path stroke="none" d="M0 0h24v24H0z" fill="none"></path>
                      <path d="M12 15m-3 0a3 3 0 1 0 6 0a3 3 0 1 0 -6 0"></path>
                      <path d="M10 7h4"></path>
                      <path d="M10 18v4l2 -1l2 1v-4"></path>
                      <path d="M10 19h-2a2 2 0 0 1 -2 -2v-12a2 2 0 0 1 2 -2h8a2 2 0 0 1 2 2v12a2 2 0 0 1 -2 2h-2"></path>
                    </svg>