   <svg
                      xmlns="http://www.w3.org/2000/svg"
                      className="{% if request.resolver_match.url_name == 'especialista' %}text-gray-300 mr-3 {% else %} text-gray-400 group-hover:text-gray-300 {% endif %}  mr-3 flex-shrink-0 h-6 w-6"
                      width="24"
                      height="24"
                      viewBox="0 0 24 24"
                      stroke="#CBD5E1"
                      fill="none"
                    >
                      <path stroke="none" d="M0 0h24v24H0z" fill="none"></path>
                      <path d="M9 7m-4 0a4 4 0 1 0 8 0a4 4 0 1 0 -8 0"></path>
                      <path d="M3 21v-2a4 4 0 0 1 4 -4h4a4 4 0 0 1 4 4v2"></path>
                      <path d="M16 3.13a4 4 0 0 1 0 7.75"></path>
                      <path d="M21 21v-2a4 4 0 0 0 -3 -3.85"></path>
                    </svg>